+ filenameToUse=/home/horvathandras/vatic/vatic/public/videouploads/DJI_0028_autonyom.avi
+ filenameNoDot=DJI_0028_autonyom_Kotcse_2018.04.25._napos_kalaszos_T1
+ FullUploadPath=/home/horvathandras/vatic/vatic/public/videouploads/DJI_0028_autonyom.avi
+ VideoDataDir=/home/horvathandras/vatic/vatic/videos
+ AvailableObjectTypes='PozitívROI NegatívROI Túrás ~Friss ~Régebbi Rágás ~Friss ~Régebbi Törés ~Friss ~Régebbi Taposás ~Friss ~Régebbi EgészségesNövény Egyéb1 Egyéb2 Egyéb3 Egyéb4 Egyéb5'
++ dirname /home/horvathandras/vatic/vatic/vatic_publisher.sh
+ cd /home/horvathandras/vatic/vatic
+ touch /home/horvathandras/vatic/vatic/public/videouploads/DJI_0028_autonyom.avi
+ chmod 744 /home/horvathandras/vatic/vatic/public/videouploads/DJI_0028_autonyom.avi
+ mkdir /home/horvathandras/vatic/vatic/videos/DJI_0028_autonyom_Kotcse_2018.04.25._napos_kalaszos_T1
+ turkic extract /home/horvathandras/vatic/vatic/public/videouploads/DJI_0028_autonyom.avi /home/horvathandras/vatic/vatic/videos/DJI_0028_autonyom_Kotcse_2018.04.25._napos_kalaszos_T1 --no-resize
ffmpeg version 2.8.14-0ubuntu0.16.04.1 Copyright (c) 2000-2018 the FFmpeg developers
  built with gcc 5.4.0 (Ubuntu 5.4.0-6ubuntu1~16.04.9) 20160609
  configuration: --prefix=/usr --extra-version=0ubuntu0.16.04.1 --build-suffix=-ffmpeg --toolchain=hardened --libdir=/usr/lib/x86_64-linux-gnu --incdir=/usr/include/x86_64-linux-gnu --cc=cc --cxx=g++ --enable-gpl --enable-shared --disable-stripping --disable-decoder=libopenjpeg --disable-decoder=libschroedinger --enable-avresample --enable-avisynth --enable-gnutls --enable-ladspa --enable-libass --enable-libbluray --enable-libbs2b --enable-libcaca --enable-libcdio --enable-libflite --enable-libfontconfig --enable-libfreetype --enable-libfribidi --enable-libgme --enable-libgsm --enable-libmodplug --enable-libmp3lame --enable-libopenjpeg --enable-libopus --enable-libpulse --enable-librtmp --enable-libschroedinger --enable-libshine --enable-libsnappy --enable-libsoxr --enable-libspeex --enable-libssh --enable-libtheora --enable-libtwolame --enable-libvorbis --enable-libvpx --enable-libwavpack --enable-libwebp --enable-libx265 --enable-libxvid --enable-libzvbi --enable-openal --enable-opengl --enable-x11grab --enable-libdc1394 --enable-libiec61883 --enable-libzmq --enable-frei0r --enable-libx264 --enable-libopencv
  libavutil      54. 31.100 / 54. 31.100
  libavcodec     56. 60.100 / 56. 60.100
  libavformat    56. 40.101 / 56. 40.101
  libavdevice    56.  4.100 / 56.  4.100
  libavfilter     5. 40.101 /  5. 40.101
  libavresample   2.  1.  0 /  2.  1.  0
  libswscale      3.  1.101 /  3.  1.101
  libswresample   1.  2.101 /  1.  2.101
  libpostproc    53.  3.100 / 53.  3.100
Input #0, mov,mp4,m4a,3gp,3g2,mj2, from '/home/horvathandras/vatic/vatic/public/videouploads/DJI_0028_autonyom.avi':
  Metadata:
    major_brand     : qt  
    minor_version   : 537986816
    compatible_brands: qt  
    creation_time   : 2018-04-25 17:37:05
    location        : +46.720935+17.860744+30.300
    location-{    : +46.720935+17.860744+30.300
    comment         : DE=None, Mode=P, DSW=0001
  Duration: 00:00:35.37, start: 0.000000, bitrate: 100734 kb/s
    Stream #0:0(eng): Video: h264 (High) (avc1 / 0x31637661), yuv420p(tv, bt709), 4096x2160 [SAR 1:1 DAR 256:135], 100626 kb/s, 29.97 fps, 29.97 tbr, 30k tbn, 59.94 tbc (default)
    Metadata:
      creation_time   : 2018-04-25 17:37:05
      handler_name    : DJI.AVC
      encoder         : AVC encoder
    Stream #0:1(eng): Data: none (priv / 0x76697270), 102 kb/s
    Metadata:
      creation_time   : 2018-04-25 17:37:05
      handler_name    : DJI.Meta
Please use -b:a or -b:v, -b is ambiguous
[swscaler @ 0x1f277a0] deprecated pixel format used, make sure you did set range correctly
Output #0, image2, to '/tmp/pyvision-ffmpeg-408661628/%d.jpg':
  Metadata:
    major_brand     : qt  
    minor_version   : 537986816
    compatible_brands: qt  
    comment         : DE=None, Mode=P, DSW=0001
    location        : +46.720935+17.860744+30.300
    location-{    : +46.720935+17.860744+30.300
    encoder         : Lavf56.40.101
    Stream #0:0(eng): Video: mjpeg, yuvj420p(pc), 4096x2160 [SAR 1:1 DAR 256:135], q=2-31, 10000 kb/s, 29.97 fps, 29.97 tbn, 29.97 tbc (default)
    Metadata:
      creation_time   : 2018-04-25 17:37:05
      handler_name    : DJI.AVC
      encoder         : Lavc56.60.100 mjpeg
Stream mapping:
  Stream #0:0 -> #0:0 (h264 (native) -> mjpeg (native))
Press [q] to stop, [?] for help
frame=    1 fps=1.0 q=15.8 size=N/A time=00:00:00.03 bitrate=N/A    frame=    4 fps=2.6 q=22.6 size=N/A time=00:00:00.13 bitrate=N/A    frame=    8 fps=3.8 q=24.8 size=N/A time=00:00:00.26 bitrate=N/A    frame=   11 fps=4.2 q=24.8 size=N/A time=00:00:00.36 bitrate=N/A    frame=   14 fps=4.4 q=24.8 size=N/A time=00:00:00.46 bitrate=N/A    frame=   18 fps=4.8 q=24.8 size=N/A time=00:00:00.60 bitrate=N/A    frame=   22 fps=5.1 q=24.8 size=N/A time=00:00:00.73 bitrate=N/A    frame=   26 fps=5.3 q=24.8 size=N/A time=00:00:00.86 bitrate=N/A    frame=   30 fps=5.5 q=24.8 size=N/A time=00:00:01.00 bitrate=N/A    frame=   33 fps=5.4 q=24.8 size=N/A time=00:00:01.10 bitrate=N/A    frame=   36 fps=5.4 q=24.8 size=N/A time=00:00:01.20 bitrate=N/A    frame=   39 fps=5.5 q=24.8 size=N/A time=00:00:01.30 bitrate=N/A    frame=   43 fps=5.6 q=24.8 size=N/A time=00:00:01.43 bitrate=N/A    frame=   47 fps=5.6 q=24.8 size=N/A time=00:00:01.56 bitrate=N/A    frame=   51 fps=5.7 q=24.8 size=N/A time=00:00:01.70 bitrate=N/A    frame=   54 fps=5.7 q=24.8 size=N/A time=00:00:01.80 bitrate=N/A    frame=   57 fps=5.6 q=24.8 size=N/A time=00:00:01.90 bitrate=N/A    frame=   60 fps=5.6 q=24.8 size=N/A time=00:00:02.00 bitrate=N/A    frame=   63 fps=5.6 q=24.8 size=N/A time=00:00:02.10 bitrate=N/A    frame=   67 fps=5.6 q=24.8 size=N/A time=00:00:02.23 bitrate=N/A    frame=   71 fps=5.7 q=24.8 size=N/A time=00:00:02.36 bitrate=N/A    frame=   75 fps=5.7 q=24.8 size=N/A time=00:00:02.50 bitrate=N/A    frame=   79 fps=5.7 q=24.8 size=N/A time=00:00:02.63 bitrate=N/A    frame=   83 fps=5.8 q=24.8 size=N/A time=00:00:02.76 bitrate=N/A    frame=   87 fps=5.8 q=24.8 size=N/A time=00:00:02.90 bitrate=N/A    frame=   91 fps=5.8 q=24.8 size=N/A time=00:00:03.03 bitrate=N/A    frame=   95 fps=5.9 q=24.8 size=N/A time=00:00:03.16 bitrate=N/A    frame=   99 fps=5.9 q=24.8 size=N/A time=00:00:03.30 bitrate=N/A    frame=  103 fps=5.9 q=24.8 size=N/A time=00:00:03.43 bitrate=N/A    frame=  107 fps=5.9 q=24.8 size=N/A time=00:00:03.57 bitrate=N/A    frame=  111 fps=5.9 q=24.8 size=N/A time=00:00:03.70 bitrate=N/A    frame=  115 fps=6.0 q=24.8 size=N/A time=00:00:03.83 bitrate=N/A    frame=  119 fps=6.0 q=24.8 size=N/A time=00:00:03.97 bitrate=N/A    frame=  121 fps=5.9 q=24.8 size=N/A time=00:00:04.03 bitrate=N/A    frame=  125 fps=5.9 q=24.8 size=N/A time=00:00:04.17 bitrate=N/A    frame=  129 fps=6.0 q=24.8 size=N/A time=00:00:04.30 bitrate=N/A    frame=  133 fps=6.0 q=24.8 size=N/A time=00:00:04.43 bitrate=N/A    frame=  137 fps=6.0 q=24.8 size=N/A time=00:00:04.57 bitrate=N/A    frame=  141 fps=6.0 q=24.8 size=N/A time=00:00:04.70 bitrate=N/A    frame=  145 fps=6.0 q=24.8 size=N/A time=00:00:04.83 bitrate=N/A    frame=  149 fps=6.1 q=24.8 size=N/A time=00:00:04.97 bitrate=N/A    frame=  152 fps=6.0 q=24.8 size=N/A time=00:00:05.07 bitrate=N/A    frame=  155 fps=6.0 q=24.8 size=N/A time=00:00:05.17 bitrate=N/A    frame=  159 fps=6.0 q=24.8 size=N/A time=00:00:05.30 bitrate=N/A    frame=  163 fps=6.0 q=24.8 size=N/A time=00:00:05.43 bitrate=N/A    frame=  166 fps=6.0 q=24.8 size=N/A time=00:00:05.53 bitrate=N/A    frame=  171 fps=6.1 q=24.8 size=N/A time=00:00:05.70 bitrate=N/A    frame=  176 fps=6.1 q=24.8 size=N/A time=00:00:05.87 bitrate=N/A    frame=  181 fps=6.2 q=24.8 size=N/A time=00:00:06.03 bitrate=N/A    frame=  186 fps=6.2 q=24.8 size=N/A time=00:00:06.20 bitrate=N/A    frame=  191 fps=6.3 q=24.8 size=N/A time=00:00:06.37 bitrate=N/A    frame=  196 fps=6.3 q=24.8 size=N/A time=00:00:06.53 bitrate=N/A    frame=  201 fps=6.3 q=24.8 size=N/A time=00:00:06.70 bitrate=N/A    frame=  204 fps=6.3 q=24.8 size=N/A time=00:00:06.80 bitrate=N/A    frame=  208 fps=6.3 q=24.8 size=N/A time=00:00:06.94 bitrate=N/A    frame=  211 fps=6.3 q=24.8 size=N/A time=00:00:07.04 bitrate=N/A    frame=  215 fps=6.3 q=24.8 size=N/A time=00:00:07.17 bitrate=N/A    frame=  219 fps=6.3 q=24.8 size=N/A time=00:00:07.30 bitrate=N/A    frame=  223 fps=6.3 q=24.8 size=N/A time=00:00:07.44 bitrate=N/A    frame=  227 fps=6.3 q=24.8 size=N/A time=00:00:07.57 bitrate=N/A    frame=  231 fps=6.3 q=24.8 size=N/A time=00:00:07.70 bitrate=N/A    frame=  234 fps=6.3 q=24.8 size=N/A time=00:00:07.80 bitrate=N/A    frame=  238 fps=6.3 q=24.8 size=N/A time=00:00:07.94 bitrate=N/A    frame=  241 fps=6.3 q=24.8 size=N/A time=00:00:08.04 bitrate=N/A    frame=  245 fps=6.3 q=24.8 size=N/A time=00:00:08.17 bitrate=N/A    frame=  248 fps=6.3 q=24.8 size=N/A time=00:00:08.27 bitrate=N/A    frame=  251 fps=6.3 q=24.8 size=N/A time=00:00:08.37 bitrate=N/A    frame=  255 fps=6.3 q=24.8 size=N/A time=00:00:08.50 bitrate=N/A    frame=  259 fps=6.3 q=24.8 size=N/A time=00:00:08.64 bitrate=N/A    frame=  263 fps=6.3 q=24.8 size=N/A time=00:00:08.77 bitrate=N/A    frame=  267 fps=6.3 q=24.8 size=N/A time=00:00:08.90 bitrate=N/A    frame=  271 fps=6.3 q=24.8 size=N/A time=00:00:09.04 bitrate=N/A    frame=  274 fps=6.3 q=24.8 size=N/A time=00:00:09.14 bitrate=N/A    frame=  278 fps=6.3 q=24.8 size=N/A time=00:00:09.27 bitrate=N/A    frame=  282 fps=6.3 q=24.8 size=N/A time=00:00:09.40 bitrate=N/A    frame=  286 fps=6.3 q=24.8 size=N/A time=00:00:09.54 bitrate=N/A    frame=  289 fps=6.3 q=24.8 size=N/A time=00:00:09.64 bitrate=N/A    frame=  293 fps=6.3 q=24.8 size=N/A time=00:00:09.77 bitrate=N/A    frame=  297 fps=6.3 q=24.8 size=N/A time=00:00:09.90 bitrate=N/A    frame=  301 fps=6.3 q=24.8 size=N/A time=00:00:10.04 bitrate=N/A    frame=  305 fps=6.3 q=24.8 size=N/A time=00:00:10.17 bitrate=N/A    frame=  308 fps=6.3 q=24.8 size=N/A time=00:00:10.27 bitrate=N/A    frame=  312 fps=6.3 q=24.8 size=N/A time=00:00:10.41 bitrate=N/A    frame=  316 fps=6.3 q=24.8 size=N/A time=00:00:10.54 bitrate=N/A    frame=  319 fps=6.2 q=24.8 size=N/A time=00:00:10.64 bitrate=N/A    frame=  323 fps=6.3 q=24.8 size=N/A time=00:00:10.77 bitrate=N/A    frame=  327 fps=6.2 q=24.8 size=N/A time=00:00:10.91 bitrate=N/A    frame=  330 fps=6.2 q=24.8 size=N/A time=00:00:11.01 bitrate=N/A    frame=  333 fps=6.2 q=24.8 size=N/A time=00:00:11.11 bitrate=N/A    frame=  336 fps=6.2 q=24.8 size=N/A time=00:00:11.21 bitrate=N/A    frame=  340 fps=6.2 q=24.8 size=N/A time=00:00:11.34 bitrate=N/A    frame=  344 fps=6.2 q=24.8 size=N/A time=00:00:11.47 bitrate=N/A    frame=  348 fps=6.2 q=24.8 size=N/A time=00:00:11.61 bitrate=N/A    frame=  351 fps=6.2 q=24.8 size=N/A time=00:00:11.71 bitrate=N/A    frame=  354 fps=6.2 q=24.8 size=N/A time=00:00:11.81 bitrate=N/A    frame=  358 fps=6.2 q=24.8 size=N/A time=00:00:11.94 bitrate=N/A    frame=  361 fps=6.2 q=24.8 size=N/A time=00:00:12.04 bitrate=N/A    frame=  365 fps=6.2 q=24.8 size=N/A time=00:00:12.17 bitrate=N/A    frame=  369 fps=6.2 q=24.8 size=N/A time=00:00:12.31 bitrate=N/A    frame=  373 fps=6.2 q=24.8 size=N/A time=00:00:12.44 bitrate=N/A    frame=  377 fps=6.3 q=24.8 size=N/A time=00:00:12.57 bitrate=N/A    frame=  381 fps=6.2 q=24.8 size=N/A time=00:00:12.71 bitrate=N/A    frame=  386 fps=6.3 q=24.8 size=N/A time=00:00:12.87 bitrate=N/A    frame=  390 fps=6.3 q=24.8 size=N/A time=00:00:13.01 bitrate=N/A    frame=  392 fps=6.2 q=24.8 size=N/A time=00:00:13.07 bitrate=N/A    frame=  396 fps=6.2 q=24.8 size=N/A time=00:00:13.21 bitrate=N/A    frame=  400 fps=6.2 q=24.8 size=N/A time=00:00:13.34 bitrate=N/A    frame=  404 fps=6.3 q=24.8 size=N/A time=00:00:13.48 bitrate=N/A    frame=  408 fps=6.3 q=24.8 size=N/A time=00:00:13.61 bitrate=N/A    frame=  412 fps=6.3 q=24.8 size=N/A time=00:00:13.74 bitrate=N/A    frame=  415 fps=6.3 q=24.8 size=N/A time=00:00:13.84 bitrate=N/A    frame=  419 fps=6.3 q=24.8 size=N/A time=00:00:13.98 bitrate=N/A    frame=  421 fps=6.2 q=24.8 size=N/A time=00:00:14.04 bitrate=N/A    frame=  425 fps=6.2 q=24.8 size=N/A time=00:00:14.18 bitrate=N/A    frame=  429 fps=6.3 q=24.8 size=N/A time=00:00:14.31 bitrate=N/A    frame=  433 fps=6.3 q=24.8 size=N/A time=00:00:14.44 bitrate=N/A    frame=  437 fps=6.3 q=24.8 size=N/A time=00:00:14.58 bitrate=N/A    frame=  441 fps=6.3 q=24.8 size=N/A time=00:00:14.71 bitrate=N/A    frame=  446 fps=6.3 q=24.8 size=N/A time=00:00:14.88 bitrate=N/A    frame=  451 fps=6.3 q=24.8 size=N/A time=00:00:15.04 bitrate=N/A    frame=  454 fps=6.3 q=24.8 size=N/A time=00:00:15.14 bitrate=N/A    frame=  458 fps=6.3 q=24.8 size=N/A time=00:00:15.28 bitrate=N/A    frame=  462 fps=6.3 q=24.8 size=N/A time=00:00:15.41 bitrate=N/A    frame=  466 fps=6.3 q=24.8 size=N/A time=00:00:15.54 bitrate=N/A    frame=  470 fps=6.3 q=24.8 size=N/A time=00:00:15.68 bitrate=N/A    frame=  475 fps=6.3 q=24.8 size=N/A time=00:00:15.84 bitrate=N/A    frame=  479 fps=6.3 q=24.8 size=N/A time=00:00:15.98 bitrate=N/A    frame=  483 fps=6.3 q=24.8 size=N/A time=00:00:16.11 bitrate=N/A    frame=  487 fps=6.3 q=24.8 size=N/A time=00:00:16.24 bitrate=N/A    frame=  490 fps=6.3 q=24.8 size=N/A time=00:00:16.34 bitrate=N/A    frame=  493 fps=6.3 q=24.8 size=N/A time=00:00:16.44 bitrate=N/A    frame=  496 fps=6.3 q=24.8 size=N/A time=00:00:16.54 bitrate=N/A    frame=  500 fps=6.3 q=24.8 size=N/A time=00:00:16.68 bitrate=N/A    frame=  505 fps=6.3 q=24.8 size=N/A time=00:00:16.85 bitrate=N/A    frame=  509 fps=6.3 q=24.8 size=N/A time=00:00:16.98 bitrate=N/A    frame=  513 fps=6.3 q=24.8 size=N/A time=00:00:17.11 bitrate=N/A    frame=  517 fps=6.3 q=24.8 size=N/A time=00:00:17.25 bitrate=N/A    frame=  521 fps=6.3 q=24.8 size=N/A time=00:00:17.38 bitrate=N/A    frame=  525 fps=6.3 q=24.8 size=N/A time=00:00:17.51 bitrate=N/A    frame=  529 fps=6.3 q=24.8 size=N/A time=00:00:17.65 bitrate=N/A    frame=  532 fps=6.3 q=24.8 size=N/A time=00:00:17.75 bitrate=N/A    frame=  536 fps=6.3 q=24.8 size=N/A time=00:00:17.88 bitrate=N/A    frame=  540 fps=6.3 q=24.8 size=N/A time=00:00:18.01 bitrate=N/A    frame=  544 fps=6.3 q=24.8 size=N/A time=00:00:18.15 bitrate=N/A    frame=  548 fps=6.3 q=24.8 size=N/A time=00:00:18.28 bitrate=N/A    frame=  552 fps=6.3 q=24.8 size=N/A time=00:00:18.41 bitrate=N/A    frame=  556 fps=6.3 q=24.8 size=N/A time=00:00:18.55 bitrate=N/A    frame=  560 fps=6.3 q=24.8 size=N/A time=00:00:18.68 bitrate=N/A    frame=  564 fps=6.3 q=24.8 size=N/A time=00:00:18.81 bitrate=N/A    frame=  567 fps=6.3 q=24.8 size=N/A time=00:00:18.91 bitrate=N/A    frame=  571 fps=6.3 q=24.8 size=N/A time=00:00:19.05 bitrate=N/A    frame=  575 fps=6.3 q=24.8 size=N/A time=00:00:19.18 bitrate=N/A    frame=  578 fps=6.3 q=24.8 size=N/A time=00:00:19.28 bitrate=N/A    frame=  581 fps=6.3 q=24.8 size=N/A time=00:00:19.38 bitrate=N/A    frame=  585 fps=6.3 q=24.8 size=N/A time=00:00:19.51 bitrate=N/A    frame=  589 fps=6.3 q=24.8 size=N/A time=00:00:19.65 bitrate=N/A    frame=  593 fps=6.3 q=24.8 size=N/A time=00:00:19.78 bitrate=N/A    frame=  597 fps=6.3 q=24.8 size=N/A time=00:00:19.91 bitrate=N/A    frame=  601 fps=6.3 q=24.8 size=N/A time=00:00:20.05 bitrate=N/A    frame=  605 fps=6.3 q=24.8 size=N/A time=00:00:20.18 bitrate=N/A    frame=  609 fps=6.3 q=24.8 size=N/A time=00:00:20.32 bitrate=N/A    frame=  613 fps=6.3 q=24.8 size=N/A time=00:00:20.45 bitrate=N/A    frame=  617 fps=6.3 q=24.8 size=N/A time=00:00:20.58 bitrate=N/A    frame=  621 fps=6.3 q=24.8 size=N/A time=00:00:20.72 bitrate=N/A    frame=  625 fps=6.3 q=24.8 size=N/A time=00:00:20.85 bitrate=N/A    frame=  628 fps=6.3 q=24.8 size=N/A time=00:00:20.95 bitrate=N/A    frame=  631 fps=6.3 q=24.8 size=N/A time=00:00:21.05 bitrate=N/A    frame=  635 fps=6.3 q=24.8 size=N/A time=00:00:21.18 bitrate=N/A    frame=  639 fps=6.3 q=24.8 size=N/A time=00:00:21.32 bitrate=N/A    frame=  643 fps=6.3 q=24.8 size=N/A time=00:00:21.45 bitrate=N/A    frame=  647 fps=6.3 q=24.8 size=N/A time=00:00:21.58 bitrate=N/A    frame=  651 fps=6.3 q=24.8 size=N/A time=00:00:21.72 bitrate=N/A    frame=  655 fps=6.3 q=24.8 size=N/A time=00:00:21.85 bitrate=N/A    frame=  658 fps=6.3 q=24.8 size=N/A time=00:00:21.95 bitrate=N/A    frame=  662 fps=6.3 q=24.8 size=N/A time=00:00:22.08 bitrate=N/A    frame=  666 fps=6.3 q=24.8 size=N/A time=00:00:22.22 bitrate=N/A    frame=  670 fps=6.3 q=24.8 size=N/A time=00:00:22.35 bitrate=N/A    frame=  674 fps=6.3 q=24.8 size=N/A time=00:00:22.48 bitrate=N/A    frame=  678 fps=6.3 q=24.8 size=N/A time=00:00:22.62 bitrate=N/A    frame=  681 fps=6.3 q=24.8 size=N/A time=00:00:22.72 bitrate=N/A    frame=  685 fps=6.3 q=24.8 size=N/A time=00:00:22.85 bitrate=N/A    frame=  688 fps=6.3 q=24.8 size=N/A time=00:00:22.95 bitrate=N/A    frame=  691 fps=6.3 q=24.8 size=N/A time=00:00:23.05 bitrate=N/A    frame=  695 fps=6.3 q=24.8 size=N/A time=00:00:23.18 bitrate=N/A    frame=  698 fps=6.3 q=24.8 size=N/A time=00:00:23.28 bitrate=N/A    frame=  702 fps=6.3 q=24.8 size=N/A time=00:00:23.42 bitrate=N/A    frame=  706 fps=6.3 q=24.8 size=N/A time=00:00:23.55 bitrate=N/A    frame=  710 fps=6.3 q=24.8 size=N/A time=00:00:23.69 bitrate=N/A    frame=  714 fps=6.3 q=24.8 size=N/A time=00:00:23.82 bitrate=N/A    frame=  718 fps=6.3 q=24.8 size=N/A time=00:00:23.95 bitrate=N/A    frame=  721 fps=6.3 q=24.8 size=N/A time=00:00:24.05 bitrate=N/A    frame=  725 fps=6.3 q=24.8 size=N/A time=00:00:24.19 bitrate=N/A    frame=  729 fps=6.3 q=24.8 size=N/A time=00:00:24.32 bitrate=N/A    frame=  733 fps=6.3 q=24.8 size=N/A time=00:00:24.45 bitrate=N/A    frame=  737 fps=6.3 q=24.8 size=N/A time=00:00:24.59 bitrate=N/A    frame=  740 fps=6.3 q=24.8 size=N/A time=00:00:24.69 bitrate=N/A    frame=  744 fps=6.3 q=24.8 size=N/A time=00:00:24.82 bitrate=N/A    frame=  748 fps=6.3 q=24.8 size=N/A time=00:00:24.95 bitrate=N/A    frame=  751 fps=6.3 q=24.8 size=N/A time=00:00:25.05 bitrate=N/A    frame=  755 fps=6.3 q=24.8 size=N/A time=00:00:25.19 bitrate=N/A    frame=  759 fps=6.3 q=24.8 size=N/A time=00:00:25.32 bitrate=N/A    frame=  763 fps=6.3 q=24.8 size=N/A time=00:00:25.45 bitrate=N/A    frame=  767 fps=6.3 q=24.8 size=N/A time=00:00:25.59 bitrate=N/A    frame=  771 fps=6.3 q=24.8 size=N/A time=00:00:25.72 bitrate=N/A    frame=  775 fps=6.3 q=24.8 size=N/A time=00:00:25.85 bitrate=N/A    frame=  779 fps=6.3 q=24.8 size=N/A time=00:00:25.99 bitrate=N/A    frame=  781 fps=6.3 q=24.8 size=N/A time=00:00:26.05 bitrate=N/A    frame=  785 fps=6.3 q=24.8 size=N/A time=00:00:26.19 bitrate=N/A    frame=  789 fps=6.3 q=24.8 size=N/A time=00:00:26.32 bitrate=N/A    frame=  793 fps=6.3 q=24.8 size=N/A time=00:00:26.45 bitrate=N/A    frame=  797 fps=6.3 q=24.8 size=N/A time=00:00:26.59 bitrate=N/A    frame=  801 fps=6.3 q=24.8 size=N/A time=00:00:26.72 bitrate=N/A    frame=  806 fps=6.3 q=24.8 size=N/A time=00:00:26.89 bitrate=N/A    frame=  810 fps=6.3 q=24.8 size=N/A time=00:00:27.02 bitrate=N/A    frame=  812 fps=6.3 q=24.8 size=N/A time=00:00:27.09 bitrate=N/A    frame=  817 fps=6.3 q=24.8 size=N/A time=00:00:27.26 bitrate=N/A    frame=  822 fps=6.3 q=24.8 size=N/A time=00:00:27.42 bitrate=N/A    frame=  826 fps=6.4 q=24.8 size=N/A time=00:00:27.56 bitrate=N/A    frame=  830 fps=6.4 q=24.8 size=N/A time=00:00:27.69 bitrate=N/A    frame=  834 fps=6.4 q=24.8 size=N/A time=00:00:27.82 bitrate=N/A    frame=  837 fps=6.4 q=24.8 size=N/A time=00:00:27.92 bitrate=N/A    frame=  840 fps=6.3 q=24.8 size=N/A time=00:00:28.02 bitrate=N/A    frame=  844 fps=6.3 q=24.8 size=N/A time=00:00:28.16 bitrate=N/A    frame=  848 fps=6.4 q=24.8 size=N/A time=00:00:28.29 bitrate=N/A    frame=  852 fps=6.4 q=24.8 size=N/A time=00:00:28.42 bitrate=N/A    frame=  856 fps=6.4 q=24.8 size=N/A time=00:00:28.56 bitrate=N/A    frame=  861 fps=6.4 q=24.8 size=N/A time=00:00:28.72 bitrate=N/A    frame=  864 fps=6.4 q=24.8 size=N/A time=00:00:28.82 bitrate=N/A    frame=  868 fps=6.4 q=24.8 size=N/A time=00:00:28.96 bitrate=N/A    frame=  872 fps=6.4 q=24.8 size=N/A time=00:00:29.09 bitrate=N/A    frame=  876 fps=6.4 q=24.8 size=N/A time=00:00:29.22 bitrate=N/A    frame=  880 fps=6.4 q=24.8 size=N/A time=00:00:29.36 bitrate=N/A    frame=  883 fps=6.4 q=24.8 size=N/A time=00:00:29.46 bitrate=N/A    frame=  887 fps=6.4 q=24.8 size=N/A time=00:00:29.59 bitrate=N/A    frame=  891 fps=6.4 q=24.8 size=N/A time=00:00:29.72 bitrate=N/A    frame=  895 fps=6.4 q=24.8 size=N/A time=00:00:29.86 bitrate=N/A    frame=  899 fps=6.4 q=24.8 size=N/A time=00:00:29.99 bitrate=N/A    frame=  901 fps=6.4 q=24.8 size=N/A time=00:00:30.06 bitrate=N/A    frame=  904 fps=6.4 q=24.8 size=N/A time=00:00:30.16 bitrate=N/A    frame=  907 fps=6.4 q=24.8 size=N/A time=00:00:30.26 bitrate=N/A    frame=  911 fps=6.3 q=24.8 size=N/A time=00:00:30.39 bitrate=N/A    frame=  915 fps=6.4 q=24.8 size=N/A time=00:00:30.53 bitrate=N/A    frame=  919 fps=6.4 q=24.8 size=N/A time=00:00:30.66 bitrate=N/A    frame=  923 fps=6.4 q=24.8 size=N/A time=00:00:30.79 bitrate=N/A    frame=  927 fps=6.4 q=24.8 size=N/A time=00:00:30.93 bitrate=N/A    frame=  931 fps=6.4 q=24.8 size=N/A time=00:00:31.06 bitrate=N/A    frame=  935 fps=6.4 q=24.8 size=N/A time=00:00:31.19 bitrate=N/A    frame=  939 fps=6.4 q=24.8 size=N/A time=00:00:31.33 bitrate=N/A    frame=  943 fps=6.4 q=24.8 size=N/A time=00:00:31.46 bitrate=N/A    frame=  947 fps=6.4 q=24.8 size=N/A time=00:00:31.59 bitrate=N/A    frame=  951 fps=6.4 q=24.8 size=N/A time=00:00:31.73 bitrate=N/A    frame=  955 fps=6.4 q=24.8 size=N/A time=00:00:31.86 bitrate=N/A    frame=  959 fps=6.4 q=24.8 size=N/A time=00:00:31.99 bitrate=N/A    frame=  961 fps=6.4 q=24.8 size=N/A time=00:00:32.06 bitrate=N/A    frame=  965 fps=6.4 q=24.8 size=N/A time=00:00:32.19 bitrate=N/A    frame=  969 fps=6.3 q=24.8 size=N/A time=00:00:32.33 bitrate=N/A    frame=  973 fps=6.4 q=24.8 size=N/A time=00:00:32.46 bitrate=N/A    frame=  977 fps=6.4 q=24.8 size=N/A time=00:00:32.59 bitrate=N/A    frame=  981 fps=6.4 q=24.8 size=N/A time=00:00:32.73 bitrate=N/A    frame=  984 fps=6.4 q=24.8 size=N/A time=00:00:32.83 bitrate=N/A    frame=  988 fps=6.4 q=24.8 size=N/A time=00:00:32.96 bitrate=N/A    frame=  991 fps=6.4 q=24.8 size=N/A time=00:00:33.06 bitrate=N/A    frame=  994 fps=6.3 q=24.8 size=N/A time=00:00:33.16 bitrate=N/A    frame=  998 fps=6.4 q=24.8 size=N/A time=00:00:33.29 bitrate=N/A    frame= 1002 fps=6.4 q=24.8 size=N/A time=00:00:33.43 bitrate=N/A    frame= 1006 fps=6.4 q=24.8 size=N/A time=00:00:33.56 bitrate=N/A    frame= 1010 fps=6.4 q=24.8 size=N/A time=00:00:33.70 bitrate=N/A    frame= 1014 fps=6.4 q=24.8 size=N/A time=00:00:33.83 bitrate=N/A    frame= 1017 fps=6.4 q=24.8 size=N/A time=00:00:33.93 bitrate=N/A    frame= 1021 fps=6.4 q=24.8 size=N/A time=00:00:34.06 bitrate=N/A    frame= 1024 fps=6.4 q=24.8 size=N/A time=00:00:34.16 bitrate=N/A    frame= 1028 fps=6.4 q=24.8 size=N/A time=00:00:34.30 bitrate=N/A    frame= 1032 fps=6.4 q=24.8 size=N/A time=00:00:34.43 bitrate=N/A    frame= 1035 fps=6.4 q=24.8 size=N/A time=00:00:34.53 bitrate=N/A    frame= 1039 fps=6.4 q=24.8 size=N/A time=00:00:34.66 bitrate=N/A    frame= 1043 fps=6.4 q=24.8 size=N/A time=00:00:34.80 bitrate=N/A    frame= 1047 fps=6.4 q=24.8 size=N/A time=00:00:34.93 bitrate=N/A    frame= 1051 fps=6.4 q=24.8 size=N/A time=00:00:35.06 bitrate=N/A    frame= 1054 fps=6.4 q=24.8 size=N/A time=00:00:35.16 bitrate=N/A    frame= 1058 fps=6.4 q=24.8 size=N/A time=00:00:35.30 bitrate=N/A    frame= 1060 fps=6.4 q=24.8 Lsize=N/A time=00:00:35.36 bitrate=N/A    
video:856809kB audio:0kB subtitle:0kB other streams:0kB global headers:0kB muxing overhead: unknown
+ turkic load DJI_0028_autonyom_Kotcse_2018.04.25._napos_kalaszos_T1 /home/horvathandras/vatic/vatic/videos/DJI_0028_autonyom_Kotcse_2018.04.25._napos_kalaszos_T1 $'Pozit\303\255vROI' $'Negat\303\255vROI' $'T\303\272r\303\241s' '~Friss' '~Régebbi' $'R\303\241g\303\241s' '~Friss' '~Régebbi' $'T\303\266r\303\251s' '~Friss' '~Régebbi' $'Tapos\303\241s' '~Friss' '~Régebbi' $'Eg\303\251szs\303\251gesN\303\266v\303\251ny' $'Egy\303\251b1' $'Egy\303\251b2' $'Egy\303\251b3' $'Egy\303\251b4' $'Egy\303\251b5' --offline --title '$filenameNoDot Video' --length 1000 --description 'vatic annotation'
+ turkic publish --offline
+ mkdir /home/horvathandras/vatic/vatic/public/videothumbnails/DJI_0028_autonyom_Kotcse_2018.04.25._napos_kalaszos_T1
+ cp /home/horvathandras/vatic/vatic/videos/DJI_0028_autonyom_Kotcse_2018.04.25._napos_kalaszos_T1/0/0/31.jpg /home/horvathandras/vatic/vatic/public/videothumbnails/DJI_0028_autonyom_Kotcse_2018.04.25._napos_kalaszos_T1/thumb.jpg
